<svg width="32" height="32" viewBox="0 0 32 32" fill="none" xmlns="http://www.w3.org/2000/svg">
<g id="uil:raindrops-alt">
<path id="Vector" d="M12.2178 10.4014C12.2178 6.86719 8.90209 4.6053 8.76072 4.51534C8.5482 4.37169 8.29755 4.29493 8.04103 4.29493C7.78451 4.29493 7.53386 4.37169 7.32134 4.51534C7.17997 4.61815 3.86426 6.86719 3.86426 10.4014C3.86426 11.5091 4.30431 12.5715 5.08761 13.3548C5.8709 14.1381 6.93328 14.5782 8.04103 14.5782C9.14878 14.5782 10.2112 14.1381 10.9945 13.3548C11.7778 12.5715 12.2178 11.5091 12.2178 10.4014ZM8.04103 12.0078C7.61497 12.0078 7.20637 11.8386 6.9051 11.5373C6.60383 11.236 6.43458 10.8274 6.43458 10.4014C6.54034 9.18289 7.11655 8.05351 8.04103 7.25273C8.97102 8.04918 9.54847 9.18097 9.64748 10.4014C9.64748 10.8274 9.47823 11.236 9.17696 11.5373C8.8757 11.8386 8.46709 12.0078 8.04103 12.0078ZM15.8291 13.5115C15.6166 13.3678 15.3659 13.2911 15.1094 13.2911C14.8529 13.2911 14.6023 13.3678 14.3897 13.5115C14.1712 13.6657 9.0049 17.2384 9.0049 22.6104C9.0049 24.2294 9.64806 25.7821 10.7929 26.927C11.9377 28.0718 13.4904 28.7149 15.1094 28.7149C16.7284 28.7149 18.2811 28.0718 19.426 26.927C20.5708 25.7821 21.2139 24.2294 21.2139 22.6104C21.2139 17.1485 16.0733 13.6528 15.8291 13.5115ZM15.1094 26.1446C14.6453 26.1446 14.1857 26.0532 13.7569 25.8756C13.3282 25.698 12.9385 25.4376 12.6104 25.1095C12.2822 24.7813 12.0219 24.3917 11.8442 23.9629C11.6666 23.5341 11.5752 23.0745 11.5752 22.6104C11.5752 19.6417 13.9014 17.2513 15.1223 16.1846C16.3303 17.1999 18.6436 19.5646 18.6436 22.6104C18.6436 23.0745 18.5522 23.5341 18.3746 23.9629C18.197 24.3917 17.9367 24.7813 17.6085 25.1095C17.2803 25.4376 16.8907 25.698 16.4619 25.8756C16.0331 26.0532 15.5735 26.1446 15.1094 26.1446ZM23.8614 3.23018C23.6488 3.08653 23.3982 3.00977 23.1417 3.00977C22.8852 3.00977 22.6345 3.08653 22.422 3.23018C22.2421 3.3587 18.001 6.28886 18.001 10.7227C18.001 12.0861 18.5426 13.3936 19.5067 14.3577C20.4707 15.3217 21.7783 15.8633 23.1417 15.8633C24.5051 15.8633 25.8126 15.3217 26.7767 14.3577C27.7407 13.3936 28.2823 12.0861 28.2823 10.7227C28.2823 6.23746 24.0413 3.34584 23.8614 3.23018ZM23.1417 13.293C22.46 13.293 21.8062 13.0222 21.3242 12.5402C20.8422 12.0581 20.5714 11.4044 20.5714 10.7227C20.6594 9.79468 20.9322 8.89367 21.3736 8.07264C21.815 7.25162 22.4162 6.52716 23.1417 5.94187C23.8699 6.52466 24.4729 7.24851 24.9146 8.07003C25.3563 8.89154 25.6275 9.79379 25.712 10.7227C25.712 11.4044 25.4412 12.0581 24.9592 12.5402C24.4771 13.0222 23.8234 13.293 23.1417 13.293Z" fill="white"/>
</g>
</svg>
