<svg width="34" height="34" viewBox="0 0 34 34" fill="none" xmlns="http://www.w3.org/2000/svg">
<g id="tabler:arrow-wave-right-down">
<g id="Group">
<path id="Vector" d="M10.724 23.6503L12.4173 28.9107L17.6777 27.2174" stroke="black" stroke-width="2.31329" stroke-linecap="round" stroke-linejoin="round"/>
<path id="Vector_2" d="M7.42752 4.39201C6.11442 6.10204 5.80377 8.51406 6.49061 10.499C7.09067 12.5119 8.75002 14.2898 10.8141 14.9128C12.8782 15.5357 14.5375 17.3136 15.1376 19.3265C15.8244 21.3115 15.0924 23.6951 14.2007 25.4335L12.4171 28.9104" stroke="black" stroke-width="2.31329" stroke-linecap="round" stroke-linejoin="round"/>
</g>
<g id="Group_2">
<path id="Vector_3" d="M21.7762 23.6503L23.4695 28.9107L28.7299 27.2174" stroke="black" stroke-width="2.31329" stroke-linecap="round" stroke-linejoin="round"/>
<path id="Vector_4" d="M18.4798 4.39201C17.1667 6.10204 16.856 8.51406 17.5429 10.499C18.1429 12.5119 19.8023 14.2898 21.8663 14.9128C23.9304 15.5357 25.5898 17.3136 26.1898 19.3265C26.8767 21.3115 26.1447 23.6951 25.2529 25.4335L23.4694 28.9104" stroke="black" stroke-width="2.31329" stroke-linecap="round" stroke-linejoin="round"/>
</g>
</g>
</svg>
