<svg width="34" height="33" viewBox="0 0 34 33" fill="none" xmlns="http://www.w3.org/2000/svg">
<g id="mdi:weather-windy">
<path id="Vector" d="M6.04961 14.0507C5.69173 14.0507 5.3485 13.9086 5.09543 13.6555C4.84237 13.4024 4.7002 13.0592 4.7002 12.7013C4.7002 12.3434 4.84237 12.0002 5.09543 11.7471C5.3485 11.4941 5.69173 11.3519 6.04961 11.3519H16.845C17.5607 11.3519 18.2472 11.0675 18.7533 10.5614C19.2595 10.0553 19.5438 9.36882 19.5438 8.65305C19.5438 7.93727 19.2595 7.25081 18.7533 6.74468C18.2472 6.23855 17.5607 5.95421 16.845 5.95421C16.1028 5.95421 15.4281 6.25108 14.9423 6.75037C14.8195 6.88143 14.6711 6.98589 14.5063 7.05731C14.3415 7.12873 14.1638 7.16558 13.9842 7.16558C13.8046 7.16558 13.6269 7.12873 13.4621 7.05731C13.2973 6.98589 13.1489 6.88143 13.0261 6.75037C12.4998 6.22409 12.4998 5.36047 13.0261 4.83419C14.0112 3.86261 15.3606 3.25537 16.845 3.25537C18.2765 3.25537 19.6494 3.82405 20.6617 4.83631C21.674 5.84857 22.2426 7.2215 22.2426 8.65305C22.2426 10.0846 21.674 11.4575 20.6617 12.4698C19.6494 13.482 18.2765 14.0507 16.845 14.0507H6.04961ZM26.2909 16.7496C26.6488 16.7496 26.992 16.6074 27.2451 16.3543C27.4982 16.1013 27.6403 15.758 27.6403 15.4001C27.6403 15.0423 27.4982 14.699 27.2451 14.446C26.992 14.1929 26.6488 14.0507 26.2909 14.0507C25.9131 14.0507 25.5757 14.1992 25.3328 14.4421C25.208 14.5672 25.0597 14.6664 24.8964 14.7341C24.7332 14.8018 24.5582 14.8367 24.3815 14.8367C24.2047 14.8367 24.0297 14.8018 23.8665 14.7341C23.7033 14.6664 23.555 14.5672 23.4301 14.4421C22.9174 13.9158 22.9174 13.0656 23.4301 12.5394C24.1588 11.8107 25.1709 11.3519 26.2909 11.3519C27.3646 11.3519 28.3943 11.7784 29.1535 12.5376C29.9126 13.2968 30.3392 14.3265 30.3392 15.4001C30.3392 16.4738 29.9126 17.5035 29.1535 18.2627C28.3943 19.0219 27.3646 19.4484 26.2909 19.4484H7.39903C7.04115 19.4484 6.69792 19.3062 6.44485 19.0532C6.19179 18.8001 6.04961 18.4569 6.04961 18.099C6.04961 17.7411 6.19179 17.3979 6.44485 17.1448C6.69792 16.8917 7.04115 16.7496 7.39903 16.7496H26.2909ZM24.9415 24.8461H6.04961C5.69173 24.8461 5.3485 24.7039 5.09543 24.4508C4.84237 24.1978 4.7002 23.8545 4.7002 23.4967C4.7002 23.1388 4.84237 22.7955 5.09543 22.5425C5.3485 22.2894 5.69173 22.1472 6.04961 22.1472H24.9415C26.0151 22.1472 27.0448 22.5738 27.804 23.3329C28.5632 24.0921 28.9897 25.1218 28.9897 26.1955C28.9897 27.2692 28.5632 28.2989 27.804 29.058C27.0448 29.8172 26.0151 30.2438 24.9415 30.2438C23.8215 30.2438 22.8094 29.785 22.0807 29.0563C21.5679 28.53 21.5679 27.6799 22.0807 27.1536C22.2056 27.0285 22.3538 26.9292 22.5171 26.8615C22.6803 26.7938 22.8553 26.759 23.0321 26.759C23.2088 26.759 23.3838 26.7938 23.547 26.8615C23.7103 26.9292 23.8586 27.0285 23.9834 27.1536C24.2263 27.3965 24.5636 27.5449 24.9415 27.5449C25.2994 27.5449 25.6426 27.4027 25.8957 27.1497C26.1487 26.8966 26.2909 26.5534 26.2909 26.1955C26.2909 25.8376 26.1487 25.4944 25.8957 25.2413C25.6426 24.9882 25.2994 24.8461 24.9415 24.8461Z" fill="white"/>
</g>
</svg>
